HIERARCHY
ROOT hip
{
	OFFSET 0.000000 0.000000 0.000000 
	CHANNELS 6 Xposition Yposition Zposition Xrotation Zrotation Yrotation
	JOINT abdomen
	{
		OFFSET 0.000000 3.402643 0.000000 
		CHANNELS 3 Xrotation Zrotation Yrotation
		JOINT chest
		{
			OFFSET 0.000000 8.438565 -0.680529 
			CHANNELS 3 Xrotation Zrotation Yrotation
			JOINT neck
			{
				OFFSET 0.000000 10.207942 -0.272212 
				CHANNELS 3 Xrotation Zrotation Yrotation
				JOINT head
				{
					OFFSET 0.000000 3.130431 0.000000 
					CHANNELS 3 Xrotation Zrotation Yrotation
					End Site
					{
						OFFSET 0.000000 3.130435 0.000000 
					}
				}
			}
			JOINT lCollar
			{
				OFFSET 3.470700 6.669187 -0.816635 
				CHANNELS 3 Yrotation Zrotation Xrotation
				JOINT lShldr
				{
					OFFSET 3.198488 0.000000 0.000000 
					CHANNELS 3 Zrotation Yrotation Xrotation
					JOINT lForeArm
					{
						OFFSET 10.139888 0.000000 0.000000 
						CHANNELS 3 Yrotation Zrotation Xrotation
						JOINT lHand
						{
							OFFSET 8.370511 0.000000 0.000000 
							CHANNELS 3 Zrotation Yrotation Xrotation
							End Site
							{
								OFFSET 4.083176 0.000000 0.000000 
							}
						}
					}
				}
			}
			JOINT rCollar
			{
				OFFSET -3.470700 6.669187 -0.816635 
				CHANNELS 3 Yrotation Zrotation Xrotation
				JOINT rShldr
				{
					OFFSET -3.198488 0.000000 0.000000 
					CHANNELS 3 Zrotation Yrotation Xrotation
					JOINT rForeArm
					{
						OFFSET -10.139888 0.000000 0.000000 
						CHANNELS 3 Yrotation Zrotation Xrotation
						JOINT rHand
						{
							OFFSET -8.370511 0.000000 0.000000 
							CHANNELS 3 Zrotation Yrotation Xrotation
							End Site
							{
								OFFSET -4.083176 0.000000 0.000000 
							}
						}
					}
				}
			}
		}
	}
	JOINT lThigh
	{
		OFFSET 5.308129 -1.633274 1.361059 
		CHANNELS 3 Xrotation Zrotation Yrotation
		JOINT lShin
		{
			OFFSET -2.041588 -20.007561 0.000000 
			CHANNELS 3 Xrotation Zrotation Yrotation
			JOINT lFoot
			{
				OFFSET 0.000000 -19.190928 -1.224953 
				CHANNELS 3 Xrotation Yrotation Zrotation
				End Site
				{
					OFFSET 0.000000 -2.449906 4.627600 
				}
			}
		}
	}
	JOINT rThigh
	{
		OFFSET -5.308129 -1.633274 1.361059 
		CHANNELS 3 Xrotation Zrotation Yrotation
		JOINT rShin
		{
			OFFSET 2.041588 -20.007561 0.000000 
			CHANNELS 3 Xrotation Zrotation Yrotation
			JOINT rFoot
			{
				OFFSET 0.000000 -19.190928 -1.224953 
				CHANNELS 3 Xrotation Yrotation Zrotation
				End Site
				{
					OFFSET 0.000000 -2.449906 4.627600 
				}
			}
		}
	}
}
MOTION
Frames: 19
Frame Time: 0.016667
25.093832 49.122128 8.809431 7.642750 13.787077 8.811357 8.255935 -1.815896 -1.358287 2.706197 -13.695535 3.536176 37.614841 -29.992439 20.200239 13.411740 -12.628195 26.810272 -5.937108 -24.642345 -1.140510 77.292343 -61.084145 -47.281601 -44.503967 9.327978 7.747299 37.690769 -9.442219 -21.768896 14.041178 -4.287323 3.643395 -29.867741 14.837091 -44.774265 83.445900 -7.120998 14.044253 -41.679859 -9.758578 -84.867302 -11.622215 -3.690179 7.245552 23.113689 -1.087890 -1.100465 -3.053763 -7.470143 -2.138246 -3.060631 -7.912131 -47.991505 78.167244 -2.024266 1.900044 53.816826 11.916859 2.721473 
25.272577 48.558521 9.285137 8.680220 15.446661 12.459189 8.255935 -1.815896 -1.358287 2.008892 -16.167545 3.791996 35.497478 -30.652109 19.870176 11.397591 -10.598325 27.238762 -5.985252 -25.000000 -1.928121 81.291222 -60.060238 -52.800499 -47.180237 9.283438 8.168432 38.552044 -8.317512 -20.139971 14.354740 -6.940864 3.849168 -30.485340 16.793591 -52.997559 86.791779 -6.603791 14.046319 -39.819775 -9.678978 -86.032616 -12.828251 -6.336640 5.361353 25.056717 -1.171872 -0.882536 -6.251269 -7.921874 -2.181992 -0.786905 -6.477849 -51.670784 74.141342 -1.506841 1.626574 54.724670 12.749878 2.672479 
25.434855 48.025475 9.711749 10.747961 17.037243 15.809509 8.255935 -1.815896 -1.358287 1.298405 -18.804651 4.446643 32.854427 -31.366302 20.034330 9.459103 -8.647068 27.248404 -5.695741 -25.000000 -2.856719 83.944771 -59.103512 -57.117516 -48.795654 9.219748 8.321463 39.642246 -7.433562 -19.239191 15.091648 -9.603132 4.020730 -30.576893 21.352331 -60.231838 89.879433 -6.235627 14.195760 -38.386700 -9.734856 -86.102821 -14.125121 -8.892827 3.937660 27.173477 -1.186059 -0.798131 -8.759873 -8.461836 -2.043618 0.229531 -4.683111 -54.015865 68.859344 -1.683161 1.836174 55.089973 13.474388 2.563080 
25.587038 47.521011 10.082749 13.096847 18.661999 19.368795 8.255935 -1.815896 -1.358287 0.566070 -21.434006 5.172984 30.361708 -32.471802 19.790363 7.396766 -6.809664 26.903467 -5.395364 -25.000000 -3.686202 86.498413 -58.536526 -61.139385 -50.039967 9.148974 8.461610 40.590435 -6.717953 -18.555756 15.882955 -12.268048 4.278904 -31.266922 25.844114 -67.826820 92.440285 -5.852065 14.104623 -37.680653 -9.672934 -86.130180 -16.132610 -11.405851 3.179174 29.097353 -1.186377 -0.906201 -11.224027 -9.010394 -1.917253 0.386119 -3.091688 -54.405323 63.604599 -1.517405 1.405845 55.338673 14.071715 2.466101 
25.733219 47.045471 10.379617 16.002176 19.895664 22.326429 8.255935 -1.815896 -1.358287 -0.189185 -23.898384 6.206414 27.851067 -33.955055 19.715616 5.407474 -5.728998 26.145992 -4.873736 -24.999462 -4.390664 89.978111 -58.601200 -67.073174 -50.398243 9.156102 8.481941 41.613880 -6.700212 -17.983707 16.877991 -14.727300 4.649406 -32.008244 30.488527 -74.401970 94.468353 -5.560147 14.179459 -38.497707 -9.135468 -87.187088 -18.431067 -14.038039 2.942644 31.215994 -1.196534 -1.027714 -13.245381 -10.308289 -2.033106 -0.138459 -1.492162 -52.717422 56.393471 -1.195752 1.162030 55.147240 14.276098 2.431858 
25.882383 46.601871 10.616972 18.930857 20.898819 25.380558 8.255935 -1.815896 -1.358287 -0.793248 -26.013803 6.967787 25.317102 -35.655594 19.453833 3.603995 -4.951860 25.177816 -4.518453 -25.000000 -5.112512 93.291687 -58.689064 -72.704887 -50.407509 9.154739 8.480351 42.503002 -7.071102 -17.280710 17.716101 -16.878181 4.852282 -33.177967 35.090466 -81.391525 95.905701 -5.350513 14.217147 -39.353840 -8.387339 -88.107986 -20.688023 -16.129450 3.320859 33.171753 -1.171819 -0.811689 -14.952334 -11.392996 -2.214821 -0.949329 0.467623 -49.777122 48.992100 -1.186202 1.254254 54.489346 14.573672 2.666271 
26.043877 46.188633 10.795605 21.503582 21.481470 28.101257 8.255935 -1.815896 -1.358287 -1.401311 -27.595446 7.583728 23.300440 -37.388031 19.161306 1.851502 -4.992432 23.924179 -4.258604 -25.000000 -5.515175 96.851463 -58.343674 -78.783806 -50.407509 9.154739 8.480351 42.852531 -7.503664 -16.435862 18.301617 -18.442047 5.252049 -35.492054 39.755978 -88.213387 96.629150 -5.269374 14.230975 -40.701458 -7.558487 -89.507660 -22.976048 -17.919180 4.048169 34.903301 -0.917908 -1.177555 -16.104647 -12.921988 -1.772906 -1.375526 2.220178 -45.274288 41.263470 -0.712688 1.349340 53.483818 14.649540 2.925524 
26.220619 45.819633 10.939128 24.189554 22.004864 30.757490 8.255935 -1.815896 -1.358287 -1.617326 -28.826984 8.129628 21.627335 -39.247082 18.605679 0.262727 -5.545529 22.876680 -3.918696 -25.000000 -5.590853 100.046303 -57.644821 -83.429352 -50.407509 9.154739 8.480351 43.223179 -8.071983 -15.784098 18.832474 -19.615416 5.677720 -38.781807 44.189548 -95.995857 96.449936 -5.272634 14.223082 -41.879448 -6.697423 -90.753578 -25.018246 -19.443140 4.787393 37.012707 -1.171796 -1.179201 -17.662514 -14.659077 -1.972681 -1.702828 3.704295 -40.592110 33.360363 -0.433973 0.945812 53.016949 14.469612 2.714572 
26.420809 45.501923 11.070316 25.542498 22.154919 32.816742 8.255935 -1.815896 -1.358287 -1.421280 -29.531208 8.051301 20.252234 -40.608036 17.862656 -0.948455 -6.435409 21.745359 -3.976723 -25.000000 -5.634274 102.004715 -56.463894 -85.667747 -50.232315 9.145736 8.468801 44.146149 -8.094960 -16.470394 18.919451 -20.276691 5.903149 -42.582741 47.658649 -101.130516 95.009583 -5.453658 14.185066 -43.678581 -6.758439 -92.069916 -26.343374 -20.719238 5.596667 38.605850 -1.041262 -0.997921 -18.578341 -16.742329 -1.906559 -1.594872 4.892892 -36.654335 27.399185 -0.400098 0.959603 52.169750 14.064002 2.757571 
26.638109 45.254593 11.192578 26.993357 22.457376 34.905914 8.255935 -1.815896 -1.358287 -1.229527 -29.715410 7.895285 19.822197 -41.622913 17.148926 -1.812196 -7.318537 20.791662 -3.892020 -25.000000 -5.298421 103.538437 -55.452019 -85.917610 -49.157543 9.231485 8.354649 45.421692 -8.010078 -17.634790 18.874073 -20.353653 6.280395 -47.097004 50.879940 -106.952515 92.104584 -5.890447 14.263759 -45.469501 -6.822335 -93.400749 -27.070326 -21.610968 6.276146 39.665974 -1.238376 -1.101115 -18.898098 -18.268711 -1.840951 -1.048646 5.573758 -32.861565 21.450281 -0.031338 0.789182 51.133755 13.131371 2.821325 
26.871504 45.095848 11.324073 27.353256 22.644596 36.351177 8.255935 -1.815896 -1.358287 -0.814169 -29.717009 7.537356 19.298475 -42.103432 16.405209 -2.494531 -8.201749 20.185398 -4.055938 -25.000000 -5.201678 104.722664 -55.165379 -83.181915 -46.852234 9.271486 8.143343 47.403862 -7.566837 -19.785421 18.638746 -20.153496 6.309849 -48.879307 52.299740 -107.558609 87.182335 -6.634354 14.059134 -47.148613 -8.176021 -93.216820 -26.663792 -22.085690 6.772531 40.383034 -1.500392 -0.920910 -18.974770 -20.377081 -1.774995 -0.356518 5.572784 -31.551069 18.591440 -0.027965 0.669159 50.563843 12.628911 2.901510 
27.113331 45.035534 11.442456 26.984724 22.905443 37.373535 8.255935 -1.815896 -1.358287 -0.413562 -29.191978 7.184515 19.587831 -42.030006 15.345938 -2.663727 -8.553535 19.442451 -4.183682 -25.000000 -4.812596 105.952461 -54.726578 -80.580109 -43.648315 9.410894 7.805840 48.832355 -7.005269 -21.765017 18.343891 -19.756765 6.393407 -48.753769 52.892643 -104.376511 82.182228 -7.232455 13.977840 -48.655254 -9.343802 -93.078880 -26.001455 -22.321169 7.299920 40.898987 -1.353912 -1.054383 -18.908930 -22.186058 -1.784375 0.563434 4.848452 -31.333391 17.878670 -0.040779 0.649620 50.296116 12.176228 2.969023 
27.356813 45.091331 11.537072 26.005562 23.172901 37.746346 8.255935 -1.815896 -1.358287 -0.209532 -28.660919 6.924158 19.732491 -41.276588 14.568326 -2.654917 -8.721231 18.699375 -4.270838 -25.000000 -4.489172 106.525375 -55.844120 -77.591148 -39.901257 9.429260 7.253787 48.902130 -7.201326 -22.882782 18.022831 -19.014341 6.371229 -46.161381 52.074753 -95.908966 76.235313 -8.023540 13.765370 -47.748608 -10.748679 -88.981102 -24.452291 -22.157570 7.866917 40.719959 -1.227214 -1.174442 -18.472406 -23.872639 -2.127250 1.440979 3.442218 -32.965977 20.003325 -0.216758 0.742758 50.331860 11.852408 3.009166 
27.597986 45.257999 11.590441 24.762648 23.394140 37.409515 8.255935 -1.815896 -1.358287 0.193969 -27.603041 6.680716 20.244118 -40.388870 13.814270 -2.655806 -8.727582 17.819147 -4.141776 -25.000000 -4.005020 106.940781 -56.960350 -74.292412 -36.337460 9.454261 6.907780 47.754822 -7.775285 -23.387869 17.866716 -18.091133 6.398100 -43.714409 50.964821 -87.946480 70.191116 -8.746829 13.293824 -46.802341 -12.286114 -84.821083 -22.611269 -21.743195 8.057324 40.033932 -1.041442 -1.257526 -17.289309 -24.948858 -1.867556 1.610872 1.875680 -35.057449 24.033957 -0.649274 0.604722 50.662983 12.099329 2.790926 
27.832026 45.539894 11.578742 22.915819 23.386835 36.474846 8.255935 -1.815896 -1.358287 0.383057 -26.380840 6.605448 20.410774 -38.749737 12.948023 -2.298327 -8.553044 16.743843 -4.029310 -25.000000 -3.647533 104.421036 -58.938358 -69.639526 -33.659607 9.489285 6.628268 45.380737 -8.500497 -23.442614 17.705626 -16.867393 6.148634 -41.958427 49.881897 -77.226578 63.125580 -9.580738 12.788185 -43.796143 -11.762221 -83.389275 -20.711134 -21.071997 8.494572 38.966686 -1.057252 -1.022196 -16.196550 -25.394279 -2.067920 1.607620 -0.757001 -37.065132 29.991346 -0.669120 0.967950 50.781532 12.275585 2.937132 
28.054510 45.925354 11.510583 20.827673 22.887205 34.798470 8.255935 -1.815896 -1.358287 0.761316 -24.976469 6.476941 20.944901 -36.910931 11.987576 -1.962714 -8.367643 15.331792 -3.872864 -25.000000 -3.119770 101.338982 -60.896984 -64.492310 -32.055370 9.575619 6.427983 41.941956 -9.274502 -22.646866 17.506248 -15.265591 5.960491 -40.379375 48.555275 -67.017502 56.053719 -10.396311 12.359802 -40.755768 -11.382854 -82.156311 -18.655542 -20.053091 8.391451 37.400631 -1.216870 -0.990666 -14.495840 -25.457150 -2.025693 1.490863 -3.276760 -38.192429 35.972630 -1.020622 0.922808 51.337616 13.081679 2.598571 
28.261288 46.407532 11.380044 18.237024 22.074144 32.828411 8.255935 -1.815896 -1.358287 1.137895 -22.870630 6.370085 21.445803 -34.959583 10.547963 -1.600912 -8.359174 13.514080 -3.697891 -25.000000 -2.570187 91.226761 -62.511734 -55.245853 -33.115074 9.475877 6.582172 36.630436 -9.967065 -19.755228 17.301094 -13.322803 5.694910 -43.689045 48.826408 -53.318123 44.160526 -11.570461 11.167302 -39.847260 -8.970838 -88.025291 -16.452784 -18.395702 8.270871 35.290417 -1.046430 -0.982567 -12.321440 -24.813604 -1.971109 0.964203 -5.552783 -38.045101 41.944500 -1.000905 0.939242 51.481976 13.798579 3.027037 
28.446415 46.975601 11.207249 15.685116 21.043028 30.949381 8.255935 -1.815896 -1.358287 1.679599 -20.581455 6.229053 22.279999 -32.577473 8.861528 -0.882648 -8.498178 11.247576 -3.489111 -25.000000 -1.850249 80.103531 -63.217026 -45.265034 -34.529007 9.530137 6.698813 31.250612 -10.329341 -16.733128 17.059523 -11.007292 5.481299 -46.781956 49.566624 -39.526550 32.189907 -12.380256 9.767103 -39.297688 -6.510102 -93.851402 -14.371932 -16.647453 7.855475 33.341774 -1.216274 -0.949734 -9.859920 -24.440554 -2.191032 0.124849 -7.369622 -36.606640 48.263672 -1.176329 1.399230 51.513290 14.435953 2.764295 
28.602997 47.622501 11.007233 12.830543 19.113728 29.339060 8.255935 -1.815896 -1.358287 2.566876 -17.939434 5.851372 23.637377 -29.710278 6.567287 0.014009 -8.802540 8.399581 -3.436507 -25.000000 -0.986307 70.498833 -63.135796 -32.961174 -34.530357 9.524603 6.706748 27.288614 -10.374805 -15.215483 16.619936 -8.144794 5.229783 -47.797310 51.438198 -21.164215 22.679897 -12.882829 8.564075 -35.184441 -5.382450 -101.811401 -12.318041 -14.418229 7.172842 31.245626 -1.186770 -1.026706 -6.866974 -23.940153 -2.086695 -1.093955 -8.447323 -34.009796 52.652580 -1.346941 1.475202 51.802002 14.216645 2.619487 
